<?xml version="1.0" encoding="UTF-8" standalone="no"?>
<!-- Created with Inkscape (http://www.inkscape.org/) -->

<svg
   xmlns:dc="http://purl.org/dc/elements/1.1/"
   xmlns:cc="http://creativecommons.org/ns#"
   xmlns:rdf="http://www.w3.org/1999/02/22-rdf-syntax-ns#"
   xmlns:svg="http://www.w3.org/2000/svg"
   xmlns="http://www.w3.org/2000/svg"
   xmlns:sodipodi="http://sodipodi.sourceforge.net/DTD/sodipodi-0.dtd"
   xmlns:inkscape="http://www.inkscape.org/namespaces/inkscape"
   width="210mm"
   height="297mm"
   viewBox="0 0 210 297"
   version="1.1"
   id="svg8"
   inkscape:version="0.92.5 (2060ec1f9f, 2020-04-08)"
   sodipodi:docname="drawing.svg">
  <defs
     id="defs2" />
  <sodipodi:namedview
     id="base"
     pagecolor="#ffffff"
     bordercolor="#666666"
     borderopacity="1.0"
     inkscape:pageopacity="0.0"
     inkscape:pageshadow="2"
     inkscape:zoom="5.6"
     inkscape:cx="90.634204"
     inkscape:cy="875.3375"
     inkscape:document-units="mm"
     inkscape:current-layer="layer1"
     showgrid="false"
     inkscape:window-width="2880"
     inkscape:window-height="1620"
     inkscape:window-x="0"
     inkscape:window-y="0"
     inkscape:window-maximized="0" />
  <metadata
     id="metadata5">
    <rdf:RDF>
      <cc:Work
         rdf:about="">
        <dc:format>image/svg+xml</dc:format>
        <dc:type
           rdf:resource="http://purl.org/dc/dcmitype/StillImage" />
        <dc:title></dc:title>
      </cc:Work>
    </rdf:RDF>
  </metadata>
  <g
     inkscape:label="Layer 1"
     inkscape:groupmode="layer"
     id="layer1">
    <g
       id="g1010"
       inkscape:export-xdpi="127"
       inkscape:export-ydpi="127">
      <rect
         ry="0.22921"
         y="58.788486"
         x="2.0663917"
         height="20"
         width="20"
         id="rect913"
         style="opacity:1;fill:#ffffff;fill-opacity:0;stroke:none;stroke-width:0.7814405;stroke-miterlimit:4;stroke-dasharray:none;stroke-dashoffset:0;stroke-opacity:1" />
      <path
         inkscape:export-ydpi="127"
         inkscape:export-xdpi="127"
         d="M 21.971383,68.819916 A 10,10 0 0 1 11.975085,78.819915 10,10 0 0 1 1.9713858,68.827319 10,10 0 0 1 11.960278,58.819922 l 0.0111,9.999994 z"
         sodipodi:end="4.7112785"
         sodipodi:start="0"
         sodipodi:ry="10"
         sodipodi:rx="10"
         sodipodi:cy="68.819916"
         sodipodi:cx="11.971383"
         sodipodi:type="arc"
         id="path815"
         style="opacity:1;fill:#0d6efd;fill-opacity:1;stroke:none;stroke-width:0.8333075;stroke-miterlimit:4;stroke-dasharray:none;stroke-dashoffset:0;stroke-opacity:1" />
    </g>
    <g
       id="g1020"
       inkscape:export-xdpi="127"
       inkscape:export-ydpi="127">
      <rect
         ry="0.22921"
         y="59.687267"
         x="50.536549"
         height="20"
         width="20"
         id="rect913-9"
         style="opacity:1;fill:#ffffff;fill-opacity:0;stroke:none;stroke-width:0.7814405;stroke-miterlimit:4;stroke-dasharray:none;stroke-dashoffset:0;stroke-opacity:1" />
      <path
         transform="rotate(90)"
         d="m 79.818665,-60.638321 a 10,10 0 0 1 -9.996299,9.999999 10,10 0 0 1 -10.003699,-9.992596 10,10 0 0 1 9.988893,-10.007397 l 0.01111,9.999994 z"
         sodipodi:end="4.7112785"
         sodipodi:start="0"
         sodipodi:ry="10"
         sodipodi:rx="10"
         sodipodi:cy="-60.638321"
         sodipodi:cx="69.818665"
         sodipodi:type="arc"
         id="path815-3"
         style="opacity:1;fill:#0d6efd;fill-opacity:1;stroke:none;stroke-width:0.8333075;stroke-miterlimit:4;stroke-dasharray:none;stroke-dashoffset:0;stroke-opacity:1" />
    </g>
    <g
       id="g1032">
      <rect
         ry="0.22921"
         y="59.95454"
         x="100.64958"
         height="20"
         width="20"
         id="rect913-27"
         style="opacity:1;fill:#ffffff;fill-opacity:0;stroke:none;stroke-width:0.7814405;stroke-miterlimit:4;stroke-dasharray:none;stroke-dashoffset:0;stroke-opacity:1" />
      <path
         transform="scale(-1)"
         d="m -100.67627,-69.991936 a 10,10 0 0 1 -9.9963,10 10,10 0 0 1 -10.0037,-9.992597 10,10 0 0 1 9.9889,-10.007397 l 0.0111,9.999994 z"
         sodipodi:end="4.7112785"
         sodipodi:start="0"
         sodipodi:ry="10"
         sodipodi:rx="10"
         sodipodi:cy="-69.991936"
         sodipodi:cx="-110.67627"
         sodipodi:type="arc"
         id="path815-3-6"
         style="opacity:1;fill:#0d6efd;fill-opacity:1;stroke:none;stroke-width:0.8333075;stroke-miterlimit:4;stroke-dasharray:none;stroke-dashoffset:0;stroke-opacity:1" />
    </g>
    <g
       id="g1044">
      <rect
         ry="0.22921"
         y="59.741814"
         x="155.27008"
         height="20"
         width="20"
         id="rect913-93"
         style="opacity:1;fill:#ffffff;fill-opacity:0;stroke:none;stroke-width:0.7814405;stroke-miterlimit:4;stroke-dasharray:none;stroke-dashoffset:0;stroke-opacity:1" />
      <path
         transform="rotate(-90)"
         d="m -59.765442,165.27008 a 10,10 0 0 1 -9.996298,10 10,10 0 0 1 -10.003699,-9.9926 10,10 0 0 1 9.988892,-10.00739 l 0.01111,9.99999 z"
         sodipodi:end="4.7112785"
         sodipodi:start="0"
         sodipodi:ry="10"
         sodipodi:rx="10"
         sodipodi:cy="165.27008"
         sodipodi:cx="-69.765442"
         sodipodi:type="arc"
         id="path815-3-6-7"
         style="opacity:1;fill:#0d6efd;fill-opacity:1;stroke:none;stroke-width:0.8333075;stroke-miterlimit:4;stroke-dasharray:none;stroke-dashoffset:0;stroke-opacity:1" />
    </g>
    <g
       id="g1056">
      <rect
         ry="0.22921"
         y="59.286366"
         x="25.814119"
         height="20"
         width="20"
         id="rect913-2"
         style="opacity:1;fill:#ffffff;fill-opacity:0;stroke:none;stroke-width:0.7814405;stroke-miterlimit:4;stroke-dasharray:none;stroke-dashoffset:0;stroke-opacity:1" />
      <path
         transform="rotate(45.06289)"
         d="m 84.28421,23.609373 a 10,10 0 0 1 -9.996298,9.999999 10,10 0 0 1 -10.003699,-9.992596 10,10 0 0 1 9.988892,-10.007397 l 0.01111,9.999994 z"
         sodipodi:end="4.7112785"
         sodipodi:start="0"
         sodipodi:ry="10"
         sodipodi:rx="10"
         sodipodi:cy="23.609373"
         sodipodi:cx="74.28421"
         sodipodi:type="arc"
         id="path815-5"
         style="opacity:1;fill:#0d6efd;fill-opacity:1;stroke:none;stroke-width:0.8333075;stroke-miterlimit:4;stroke-dasharray:none;stroke-dashoffset:0;stroke-opacity:1" />
    </g>
    <g
       id="g1026"
       inkscape:export-xdpi="127"
       inkscape:export-ydpi="127">
      <rect
         ry="0.22921"
         y="59.687267"
         x="75.860336"
         height="20"
         width="20"
         id="rect913-1"
         style="opacity:1;fill:#ffffff;fill-opacity:0;stroke:none;stroke-width:0.7814405;stroke-miterlimit:4;stroke-dasharray:none;stroke-dashoffset:0;stroke-opacity:1" />
      <path
         transform="rotate(135.06289)"
         d="m -1.4905329,-110.0011 a 10,10 0 0 1 -9.9962981,10 10,10 0 0 1 -10.003699,-9.9926 10,10 0 0 1 9.988892,-10.00739 l 0.01111,9.99999 z"
         sodipodi:end="4.7112785"
         sodipodi:start="0"
         sodipodi:ry="10"
         sodipodi:rx="10"
         sodipodi:cy="-110.0011"
         sodipodi:cx="-11.490533"
         sodipodi:type="arc"
         id="path815-5-3"
         style="opacity:1;fill:#0d6efd;fill-opacity:1;stroke:none;stroke-width:0.8333075;stroke-miterlimit:4;stroke-dasharray:none;stroke-dashoffset:0;stroke-opacity:1" />
    </g>
    <g
       id="g1038">
      <rect
         ry="0.22921"
         y="59.836308"
         x="127.86681"
         height="20"
         width="20"
         id="rect913-0"
         style="opacity:1;fill:#ffffff;fill-opacity:0;stroke:none;stroke-width:0.7814405;stroke-miterlimit:4;stroke-dasharray:none;stroke-dashoffset:0;stroke-opacity:1" />
      <path
         transform="rotate(-134.93711)"
         d="m -136.78214,48.23267 a 10,10 0 0 1 -9.99629,9.999999 10,10 0 0 1 -10.0037,-9.992596 10,10 0 0 1 9.98889,-10.007397 l 0.0111,9.999994 z"
         sodipodi:end="4.7112785"
         sodipodi:start="0"
         sodipodi:ry="10"
         sodipodi:rx="10"
         sodipodi:cy="48.23267"
         sodipodi:cx="-146.78214"
         sodipodi:type="arc"
         id="path815-5-3-5"
         style="opacity:1;fill:#0d6efd;fill-opacity:1;stroke:none;stroke-width:0.8333075;stroke-miterlimit:4;stroke-dasharray:none;stroke-dashoffset:0;stroke-opacity:1" />
    </g>
    <g
       id="g1050">
      <rect
         ry="0.22921"
         y="60.355438"
         x="180.83044"
         height="20"
         width="20"
         id="rect913-6"
         style="opacity:1;fill:#ffffff;fill-opacity:0;stroke:none;stroke-width:0.7814405;stroke-miterlimit:4;stroke-dasharray:none;stroke-dashoffset:0;stroke-opacity:1" />
      <path
         transform="matrix(-0.7078825,-0.70633021,-0.70633021,0.7078825,0,0)"
         d="m -174.85678,-85.054321 a 10,10 0 0 1 -9.9963,9.999999 10,10 0 0 1 -10.0037,-9.992596 10,10 0 0 1 9.98889,-10.007397 l 0.0111,9.999994 z"
         sodipodi:end="4.7112785"
         sodipodi:start="0"
         sodipodi:ry="10"
         sodipodi:rx="10"
         sodipodi:cy="-85.054321"
         sodipodi:cx="-184.85678"
         sodipodi:type="arc"
         id="path815-5-3-6"
         style="opacity:1;fill:#0d6efd;fill-opacity:1;stroke:none;stroke-width:0.8333075;stroke-miterlimit:4;stroke-dasharray:none;stroke-dashoffset:0;stroke-opacity:1" />
    </g>
  </g>
</svg>
